<svg version="1.1" id="Layer_1" xmlns="http://www.w3.org/2000/svg" xmlns:xlink="http://www.w3.org/1999/xlink" x="0px" y="0px"
	 width="100%" viewBox="0 0 242 220" enable-background="new 0 0 242 220" xml:space="preserve">
<path fill="#000000" opacity="1.000000" stroke="none" 
	d="
M1.000001,138.000000 
	C1.000000,92.355133 1.000000,46.710266 1.000000,1.032700 
	C81.606346,1.032700 162.212708,1.032700 242.909546,1.032700 
	C242.909546,74.237915 242.909546,147.475983 242.909546,220.857025 
	C162.333511,220.857025 81.666794,220.857025 1.000000,220.857025 
	C1.000000,195.913574 1.000000,170.925446 1.271273,145.104065 
	C2.841778,146.632401 3.878608,149.205643 5.544818,151.271179 
	C6.453238,152.397324 8.428827,152.662613 9.923120,153.316147 
	C9.906213,151.729782 10.494130,149.763947 9.775201,148.618011 
	C4.737190,140.587784 8.001225,135.377853 13.982212,129.892288 
	C21.854122,122.672424 31.374741,118.255058 41.409424,115.376396 
	C49.962070,112.922897 58.917229,111.872513 68.898346,109.972160 
	C67.631859,112.855919 67.171295,114.227242 66.466812,115.459076 
	C58.943897,128.613403 51.587353,141.870682 43.698151,154.802612 
	C41.520241,158.372650 37.876560,161.130676 34.636372,163.952316 
	C28.950224,168.903946 22.632494,173.205200 17.406946,178.583054 
	C14.224831,181.857910 11.758631,186.390076 10.445781,190.796875 
	C8.074920,198.755051 18.504539,205.889160 28.081238,203.501755 
	C46.976021,198.791382 62.642300,188.472931 77.276871,175.862289 
	C77.696060,175.606323 77.849983,175.303711 78.300903,174.849670 
	C86.057777,165.921310 93.816315,157.376678 100.881325,148.292664 
	C106.356110,141.253326 108.273941,132.777206 106.872795,123.940872 
	C106.487099,121.508469 104.613739,118.951591 102.736465,117.178856 
	C94.875168,109.755394 83.548492,111.568596 74.481804,107.095062 
	C73.033546,106.380501 70.568230,108.043900 68.559807,108.096069 
	C56.464188,108.410248 44.763374,110.360847 33.431629,114.877014 
	C21.233755,119.738350 9.784576,125.336395 3.104224,137.511139 
	C2.873184,137.932190 1.722202,137.848465 1.000001,138.000000 
M194.442230,133.192276 
	C193.961319,133.794846 193.480408,134.397415 192.382080,135.288177 
	C184.101959,142.053329 175.392090,147.885269 163.473633,149.249588 
	C168.046631,142.928772 171.878708,137.552307 175.821854,132.258575 
	C176.497223,131.351852 177.550308,130.526657 178.602524,130.153900 
	C179.766663,129.741501 181.130356,129.892426 182.407135,129.798019 
	C181.918152,128.381561 181.429153,126.965088 180.615448,124.607971 
	C186.190399,119.510239 192.082520,114.122490 198.564758,108.820587 
	C199.038437,108.526108 199.512115,108.231636 200.849213,107.887978 
	C205.079468,108.361328 206.194382,110.582085 205.058350,116.129486 
	C204.713974,117.811226 204.502930,119.520271 204.230835,121.216805 
	C204.824280,121.343887 205.417740,121.470963 206.011200,121.598045 
	C206.672043,119.398041 207.332901,117.198044 208.663849,114.775116 
	C208.424866,113.522682 208.185883,112.270256 207.920120,110.267807 
	C206.335953,104.854225 204.844910,103.893356 199.482635,105.031937 
	C198.953140,105.137306 198.423660,105.242683 197.176880,105.577965 
	C191.371979,110.644318 185.406677,115.542702 179.840378,120.858871 
	C177.583405,123.014442 175.633224,123.570358 172.587418,123.172821 
	C165.254730,122.215775 157.795517,120.934120 150.488632,121.393791 
	C140.868408,121.999001 132.348022,125.831329 127.999573,135.427734 
	C125.486465,140.973816 128.243561,147.492142 133.800293,148.722809 
	C133.431793,147.632416 133.276840,146.717010 132.843246,145.961517 
	C128.498444,138.390884 130.089905,132.935242 137.823853,128.794220 
	C149.399399,122.596275 161.183105,124.028259 173.645157,127.349182 
	C168.154755,135.452713 163.089584,143.054459 157.832443,150.521042 
	C157.209412,151.405930 155.564316,151.880600 154.345123,151.984726 
	C147.837875,152.540482 141.493439,152.044662 135.752609,148.427734 
	C135.048706,147.984238 134.158737,147.836060 132.502869,147.248840 
	C134.302826,152.621170 138.476669,153.048462 141.980850,153.871567 
	C145.888412,154.789429 149.983627,154.908401 154.605759,155.445877 
	C150.360092,163.332199 146.379608,170.929810 142.129517,178.373505 
	C141.571472,179.350845 139.670593,179.892441 138.327545,180.035934 
	C130.648605,180.856308 122.896004,181.137939 115.273720,182.295746 
	C107.586746,183.463379 99.492973,183.665268 92.189461,188.988266 
	C91.343040,190.367081 90.496613,191.745895 89.650185,193.124725 
	C89.915039,193.218414 90.179901,193.312103 90.444756,193.405792 
	C91.669189,192.288528 92.893616,191.171249 94.880463,189.989410 
	C108.991379,184.150665 123.969925,184.875977 139.464737,183.035995 
	C127.367516,202.883743 122.978973,210.072632 102.058022,205.679810 
	C107.196892,210.495575 118.077232,211.383835 124.370911,207.980530 
	C131.312897,204.226669 136.514938,198.715317 139.679459,191.808304 
	C142.952225,184.665054 147.488693,182.236664 155.303131,182.799637 
	C168.081985,183.720230 180.943604,183.492096 195.023132,183.773590 
	C192.520370,185.724670 191.152054,186.791367 189.783737,187.858078 
	C189.963333,188.238785 190.142929,188.619492 190.322525,189.000214 
	C193.878494,188.170212 197.607620,187.759857 200.938889,186.385300 
	C203.921616,185.154556 203.384171,182.759598 199.831390,180.318405 
	C199.879379,179.857056 199.927353,179.395706 200.715225,178.907654 
	C204.136765,176.252472 207.558319,173.597290 211.587357,170.909424 
	C212.047516,171.299896 212.507660,171.690384 212.983429,172.891098 
	C212.795792,177.389435 215.575012,179.221695 219.172333,177.783707 
	C223.063477,176.228271 226.389786,173.259796 230.605087,170.677429 
	C232.783859,168.263565 234.962646,165.849716 237.141418,163.435867 
	C236.622269,162.980652 236.103119,162.525436 235.583969,162.070221 
	C233.075455,164.389023 230.566940,166.707825 227.399704,169.237671 
	C224.230927,171.442169 221.062134,173.646667 217.893356,175.851166 
	C217.289078,175.372421 216.684799,174.893677 216.080536,174.414932 
	C217.175690,170.610168 218.225861,166.791702 219.378342,163.004364 
	C220.599564,158.991104 218.841324,156.245438 214.608093,156.193909 
	C212.878723,156.172852 210.699539,156.449234 209.482635,157.482559 
	C204.816299,161.444962 200.457397,165.769424 195.430496,170.140121 
	C194.944061,170.728775 194.457642,171.317429 193.243271,172.066986 
	C190.978348,173.150635 188.713425,174.234283 186.448502,175.317932 
	C186.060013,174.998871 185.671524,174.679794 185.283035,174.360733 
	C187.958984,168.054169 190.634949,161.747620 193.310898,155.441055 
	C192.805557,155.125229 192.300217,154.809387 191.794876,154.493561 
	C185.016068,160.587143 178.237259,166.680725 171.458435,172.774307 
	C171.056885,172.361267 170.655319,171.948227 170.253754,171.535202 
	C172.612335,168.035995 175.093521,164.609802 177.248993,160.989670 
	C177.836609,160.002762 177.444153,158.432312 177.501465,157.129669 
	C176.219208,157.443451 174.336884,157.329727 173.756912,158.143814 
	C171.011948,161.996887 168.434952,166.001358 166.175598,170.157089 
	C164.768936,172.744415 164.572235,176.246094 167.645355,177.328369 
	C169.267868,177.899796 172.115585,175.807968 174.064880,174.430145 
	C176.524582,172.691544 178.632034,170.454620 180.846115,168.473221 
	C181.785599,172.386948 182.454376,175.172974 183.173737,178.573486 
	C183.139359,178.776108 183.104996,178.978745 182.125549,179.134430 
	C170.765945,179.134430 159.406357,179.134430 147.037018,179.134430 
	C150.948441,172.213638 154.689316,166.468826 157.518982,160.305649 
	C159.703354,155.547928 162.830673,153.277512 167.816986,151.892288 
	C178.852066,148.826675 188.897293,143.706085 197.166016,134.230957 
	C198.206329,132.859207 199.246643,131.487457 200.286957,130.115707 
	C199.759338,129.709106 199.231735,129.302490 198.704117,128.895889 
	C197.468933,130.263565 196.233765,131.631256 195.000000,133.000000 
	C195.000000,133.000000 194.999084,132.998444 194.442230,133.192276 
M141.815491,34.946613 
	C148.337631,49.488529 145.946960,63.326199 138.126831,76.819855 
	C150.273590,69.727257 157.449478,59.365253 157.554001,45.708355 
	C157.680649,29.157030 149.677261,16.769577 134.265671,10.105238 
	C124.268394,5.782177 114.103088,5.848600 104.214600,11.842469 
	C120.889610,12.538680 133.571228,19.439882 141.815491,34.946613 
M107.634857,81.853195 
	C118.009247,98.562706 139.350037,101.489403 149.173782,94.674744 
	C135.200272,92.868881 124.385490,86.768417 117.742050,74.047112 
	C110.914772,60.973793 114.008217,48.587830 119.973633,35.437660 
	C113.858078,37.034641 110.849663,41.322224 108.062973,45.531761 
	C100.349747,57.183292 100.695618,69.190910 107.634857,81.853195 
M119.361618,170.872330 
	C122.318108,168.289993 125.274590,165.707657 128.231079,163.125320 
	C127.903137,162.673523 127.575188,162.221725 127.247246,161.769913 
	C118.803192,165.920273 112.640182,174.861130 101.984192,175.048904 
	C101.737648,171.057144 102.698700,168.920349 106.514252,167.645920 
	C109.416573,166.676529 112.078087,164.256561 114.169655,161.884888 
	C115.282349,160.623154 114.956459,158.092773 115.279915,156.135025 
	C113.327148,156.078796 111.189270,155.477356 109.455475,156.066055 
	C103.689850,158.023666 100.588470,162.738678 97.604012,167.797287 
	C95.474243,171.407211 95.721695,175.090256 98.232689,177.023880 
	C100.308678,178.622513 104.573616,178.753769 107.286674,177.828568 
	C111.385780,176.430710 114.978699,173.548492 119.361618,170.872330 
M98.856575,23.289642 
	C98.210770,20.265589 97.564957,17.241535 96.694519,13.165674 
	C95.019447,17.945200 94.689896,22.505295 92.240417,24.862055 
	C89.764297,27.244444 85.188248,27.444281 81.532089,28.600212 
	C89.856087,29.757402 96.612282,32.497513 95.793373,43.415024 
	C97.550087,39.724262 97.477264,35.591438 99.500732,33.356945 
	C101.643486,30.990740 105.779869,30.429901 109.376831,28.943626 
	C105.732544,27.169210 102.481865,25.586441 98.856575,23.289642 
M201.264297,129.832001 
	C202.702866,127.229729 204.141434,124.627464 205.580002,122.025192 
	C204.925430,121.655823 204.270859,121.286453 203.616302,120.917084 
	C202.020126,123.672142 200.416245,126.423004 198.895294,129.218979 
	C198.870407,129.264755 199.857452,129.860992 201.264297,129.832001 
M239.451111,159.166992 
	C239.365616,159.368256 239.280121,159.569534 239.194641,159.770813 
	C239.409225,159.717697 239.623810,159.664566 239.451111,159.166992 
z"/>
<path fill="#E0E0E0" opacity="1.000000" stroke="none" 
	d="
M1.000001,138.437500 
	C1.722202,137.848465 2.873184,137.932190 3.104224,137.511139 
	C9.784576,125.336395 21.233755,119.738350 33.431629,114.877014 
	C44.763374,110.360847 56.464188,108.410248 68.559807,108.096069 
	C70.568230,108.043900 73.033546,106.380501 74.481804,107.095062 
	C83.548492,111.568596 94.875168,109.755394 102.736465,117.178856 
	C104.613739,118.951591 106.487099,121.508469 106.872795,123.940872 
	C108.273941,132.777206 106.356110,141.253326 100.881325,148.292664 
	C93.816315,157.376678 86.057777,165.921310 78.099960,174.937897 
	C77.346626,175.336044 77.149826,175.548752 77.011612,175.815643 
	C62.642300,188.472931 46.976021,198.791382 28.081238,203.501755 
	C18.504539,205.889160 8.074920,198.755051 10.445781,190.796875 
	C11.758631,186.390076 14.224831,181.857910 17.406946,178.583054 
	C22.632494,173.205200 28.950224,168.903946 34.636372,163.952316 
	C37.876560,161.130676 41.520241,158.372650 43.698151,154.802612 
	C51.587353,141.870682 58.943897,128.613403 66.466812,115.459076 
	C67.171295,114.227242 67.631859,112.855919 68.898346,109.972160 
	C58.917229,111.872513 49.962070,112.922897 41.409424,115.376396 
	C31.374741,118.255058 21.854122,122.672424 13.982212,129.892288 
	C8.001225,135.377853 4.737190,140.587784 9.775201,148.618011 
	C10.494130,149.763947 9.906213,151.729782 9.923120,153.316147 
	C8.428827,152.662613 6.453238,152.397324 5.544818,151.271179 
	C3.878608,149.205643 2.841778,146.632401 1.271273,144.635406 
	C1.000000,142.958328 1.000000,140.916672 1.000001,138.437500 
M52.638046,187.985184 
	C54.758446,186.656708 56.878845,185.328232 59.388691,183.843216 
	C59.638687,183.701843 59.835724,183.506927 60.644985,183.009262 
	C66.144753,178.543335 71.688583,174.130371 77.135239,169.600571 
	C88.947144,159.776932 98.259781,148.059357 103.793564,133.599274 
	C105.498352,129.144608 105.901321,124.627914 103.012978,120.255768 
	C103.009506,120.088593 103.006042,119.921425 103.002579,119.754250 
	C102.855698,119.957169 102.708817,120.160088 101.896339,120.169716 
	C94.520584,113.326523 85.138237,112.657112 75.849571,111.924187 
	C74.866852,111.846642 73.467064,113.354675 72.734657,114.445335 
	C69.555038,119.180199 66.454475,123.974663 63.505123,128.856186 
	C58.582169,137.004227 53.796768,145.235382 48.953457,153.431534 
	C55.105492,151.499542 60.476234,148.656219 65.839737,145.799301 
	C77.506035,139.585114 77.504532,139.582291 82.336067,140.517975 
	C75.046265,144.373856 67.774979,148.673599 60.130112,152.152374 
	C49.862988,156.824432 42.070591,163.399384 37.923183,174.304626 
	C36.095398,179.110626 33.930088,184.363708 28.557150,187.004410 
	C25.125387,183.282227 28.544474,180.737411 29.801830,178.041702 
	C31.143681,175.164886 32.964600,172.511505 34.576382,169.760574 
	C34.074223,169.419235 33.572063,169.077896 33.069904,168.736542 
	C30.855497,170.497681 28.327915,171.983765 26.490490,174.075974 
	C22.397804,178.736191 18.121548,183.377701 14.921107,188.636093 
	C12.119010,193.239975 15.382463,198.587570 20.736244,198.988083 
	C23.786871,199.216263 27.147821,199.112152 29.953230,198.054611 
	C37.087276,195.365417 43.987320,192.055466 51.380875,188.834778 
	C51.637165,188.689209 51.837845,188.488144 52.638046,187.985184 
z"/>
<path fill="#E3E3E3" opacity="1.000000" stroke="none" 
	d="
M200.005859,180.997879 
	C203.384171,182.759598 203.921616,185.154556 200.938889,186.385300 
	C197.607620,187.759857 193.878494,188.170212 190.322525,189.000214 
	C190.142929,188.619492 189.963333,188.238785 189.783737,187.858078 
	C191.152054,186.791367 192.520370,185.724670 195.023132,183.773590 
	C180.943604,183.492096 168.081985,183.720230 155.303131,182.799637 
	C147.488693,182.236664 142.952225,184.665054 139.679459,191.808304 
	C136.514938,198.715317 131.312897,204.226669 124.370911,207.980530 
	C118.077232,211.383835 107.196892,210.495575 102.058022,205.679810 
	C122.978973,210.072632 127.367516,202.883743 139.464737,183.035995 
	C123.969925,184.875977 108.991379,184.150665 94.250626,189.878738 
	C93.394104,189.464554 93.167427,189.161041 92.940742,188.857529 
	C99.492973,183.665268 107.586746,183.463379 115.273720,182.295746 
	C122.896004,181.137939 130.648605,180.856308 138.327545,180.035934 
	C139.670593,179.892441 141.571472,179.350845 142.129517,178.373505 
	C146.379608,170.929810 150.360092,163.332199 154.605759,155.445877 
	C149.983627,154.908401 145.888412,154.789429 141.980850,153.871567 
	C138.476669,153.048462 134.302826,152.621170 132.502869,147.248840 
	C134.158737,147.836060 135.048706,147.984238 135.752609,148.427734 
	C141.493439,152.044662 147.837875,152.540482 154.345123,151.984726 
	C155.564316,151.880600 157.209412,151.405930 157.832443,150.521042 
	C163.089584,143.054459 168.154755,135.452713 173.645157,127.349182 
	C161.183105,124.028259 149.399399,122.596275 137.823853,128.794220 
	C130.089905,132.935242 128.498444,138.390884 132.843246,145.961517 
	C133.276840,146.717010 133.431793,147.632416 133.800293,148.722809 
	C128.243561,147.492142 125.486465,140.973816 127.999573,135.427734 
	C132.348022,125.831329 140.868408,121.999001 150.488632,121.393791 
	C157.795517,120.934120 165.254730,122.215775 172.587418,123.172821 
	C175.633224,123.570358 177.583405,123.014442 179.840378,120.858871 
	C185.406677,115.542702 191.371979,110.644318 197.558273,105.887505 
	C197.951324,107.042946 197.962997,107.888840 197.974655,108.734741 
	C192.082520,114.122490 186.190399,119.510239 180.615448,124.607971 
	C181.429153,126.965088 181.918152,128.381561 182.407135,129.798019 
	C181.130356,129.892426 179.766663,129.741501 178.602524,130.153900 
	C177.550308,130.526657 176.497223,131.351852 175.821854,132.258575 
	C171.878708,137.552307 168.046631,142.928772 163.473633,149.249588 
	C175.392090,147.885269 184.101959,142.053329 193.006500,135.099274 
	C194.086975,134.273071 194.543030,133.635757 194.999084,132.998444 
	C194.999084,132.998444 195.000000,133.000000 195.318909,133.230087 
	C195.935867,133.891235 196.233902,134.322281 196.531921,134.753342 
	C188.897293,143.706085 178.852066,148.826675 167.816986,151.892288 
	C162.830673,153.277512 159.703354,155.547928 157.518982,160.305649 
	C154.689316,166.468826 150.948441,172.213638 147.037018,179.134430 
	C159.406357,179.134430 170.765945,179.134430 182.907471,179.409088 
	C189.091110,180.582535 194.678589,179.174927 200.005859,180.997879 
z"/>
<path fill="#ECECEC" opacity="1.000000" stroke="none" 
	d="
M141.601196,34.627125 
	C133.571228,19.439882 120.889610,12.538680 104.214600,11.842469 
	C114.103088,5.848600 124.268394,5.782177 134.265671,10.105238 
	C149.677261,16.769577 157.680649,29.157030 157.554001,45.708355 
	C157.449478,59.365253 150.273590,69.727257 138.126831,76.819855 
	C145.946960,63.326199 148.337631,49.488529 141.601196,34.627125 
z"/>
<path fill="#EDEDED" opacity="1.000000" stroke="none" 
	d="
M107.392159,81.567184 
	C100.695618,69.190910 100.349747,57.183292 108.062973,45.531761 
	C110.849663,41.322224 113.858078,37.034641 119.973633,35.437660 
	C114.008217,48.587830 110.914772,60.973793 117.742050,74.047112 
	C124.385490,86.768417 135.200272,92.868881 149.173782,94.674744 
	C139.350037,101.489403 118.009247,98.562706 107.392159,81.567184 
z"/>
<path fill="#E6E6E6" opacity="1.000000" stroke="none" 
	d="
M210.979874,170.942108 
	C207.558319,173.597290 204.136765,176.252472 200.126007,178.649750 
	C198.352432,175.580811 197.168106,172.769775 195.983765,169.958740 
	C200.457397,165.769424 204.816299,161.444962 209.482635,157.482559 
	C210.699539,156.449234 212.878723,156.172852 214.608093,156.193909 
	C218.841324,156.245438 220.599564,158.991104 219.378342,163.004364 
	C218.225861,166.791702 217.175690,170.610168 216.080536,174.414932 
	C216.684799,174.893677 217.289078,175.372421 217.893356,175.851166 
	C221.062134,173.646667 224.230927,171.442169 227.975754,169.254837 
	C229.022034,169.817215 229.492249,170.362427 229.962463,170.907639 
	C226.389786,173.259796 223.063477,176.228271 219.172333,177.783707 
	C215.575012,179.221695 212.795792,177.389435 212.965744,172.011597 
	C212.173309,169.796875 211.398560,168.461639 210.750885,166.895233 
	C212.045303,164.752869 213.212646,162.841690 214.650269,160.891418 
	C215.013702,160.344528 215.106842,159.836731 215.199982,159.328918 
	C214.458374,159.714462 213.716766,160.100021 212.676697,160.686462 
	C208.787476,164.919052 205.196747,168.950760 201.352295,173.037476 
	C200.901733,173.547531 200.704910,174.002594 200.508102,174.457642 
	C200.986099,174.363739 201.464096,174.269836 202.285110,174.087921 
	C205.129013,171.874390 207.629898,169.748917 210.337296,168.158264 
	C210.689163,169.442780 210.834518,170.192444 210.979874,170.942108 
z"/>
<path fill="#E6E6E6" opacity="1.000000" stroke="none" 
	d="
M183.123154,177.959000 
	C182.454376,175.172974 181.785599,172.386948 180.846115,168.473221 
	C178.632034,170.454620 176.524582,172.691544 174.064880,174.430145 
	C172.115585,175.807968 169.267868,177.899796 167.645355,177.328369 
	C164.572235,176.246094 164.768936,172.744415 166.175598,170.157089 
	C168.434952,166.001358 171.011948,161.996887 173.756912,158.143814 
	C174.336884,157.329727 176.219208,157.443451 177.501465,157.129669 
	C177.444153,158.432312 177.836609,160.002762 177.248993,160.989670 
	C175.093521,164.609802 172.612335,168.035995 170.253754,171.535202 
	C170.655319,171.948227 171.056885,172.361267 171.458435,172.774307 
	C178.237259,166.680725 185.016068,160.587143 191.794876,154.493561 
	C192.300217,154.809387 192.805557,155.125229 193.310898,155.441055 
	C190.634949,161.747620 187.958984,168.054169 185.283035,174.360733 
	C185.671524,174.679794 186.060013,174.998871 186.448502,175.317932 
	C188.713425,174.234283 190.978348,173.150635 193.614334,172.359543 
	C191.978363,177.724045 187.682007,178.110153 183.123154,177.959000 
z"/>
<path fill="#E4E4E4" opacity="1.000000" stroke="none" 
	d="
M119.074173,171.084717 
	C114.978699,173.548492 111.385780,176.430710 107.286674,177.828568 
	C104.573616,178.753769 100.308678,178.622513 98.232689,177.023880 
	C95.721695,175.090256 95.474243,171.407211 97.604012,167.797287 
	C100.588470,162.738678 103.689850,158.023666 109.455475,156.066055 
	C111.189270,155.477356 113.327148,156.078796 115.279915,156.135025 
	C114.956459,158.092773 115.282349,160.623154 114.169655,161.884888 
	C112.078087,164.256561 109.416573,166.676529 106.514252,167.645920 
	C102.698700,168.920349 101.737648,171.057144 101.984192,175.048904 
	C112.640182,174.861130 118.803192,165.920273 127.247246,161.769913 
	C127.575188,162.221725 127.903137,162.673523 128.231079,163.125320 
	C125.274590,165.707657 122.318108,168.289993 119.074173,171.084717 
z"/>
<path fill="#E3E3E3" opacity="1.000000" stroke="none" 
	d="
M99.043884,23.646656 
	C102.481865,25.586441 105.732544,27.169210 109.376831,28.943626 
	C105.779869,30.429901 101.643486,30.990740 99.500732,33.356945 
	C97.477264,35.591438 97.550087,39.724262 95.793373,43.415024 
	C96.612282,32.497513 89.856087,29.757402 81.532089,28.600212 
	C85.188248,27.444281 89.764297,27.244444 92.240417,24.862055 
	C94.689896,22.505295 95.019447,17.945200 96.694519,13.165674 
	C97.564957,17.241535 98.210770,20.265589 99.043884,23.646656 
z"/>
<path fill="#DCDCDC" opacity="1.000000" stroke="none" 
	d="
M183.148438,178.266235 
	C187.682007,178.110153 191.978363,177.724045 193.978302,172.279083 
	C194.457642,171.317429 194.944061,170.728775 195.707123,170.049438 
	C197.168106,172.769775 198.352432,175.580811 199.756058,178.663101 
	C199.927353,179.395706 199.879379,179.857056 199.918625,180.658142 
	C194.678589,179.174927 189.091110,180.582535 183.380005,179.432556 
	C183.104996,178.978745 183.139359,178.776108 183.148438,178.266235 
z"/>
<path fill="#E3E3E3" opacity="1.000000" stroke="none" 
	d="
M207.993744,114.998039 
	C207.332901,117.198044 206.672043,119.398041 206.011200,121.598045 
	C205.417740,121.470963 204.824280,121.343887 204.230835,121.216805 
	C204.502930,119.520271 204.713974,117.811226 205.058350,116.129486 
	C206.194382,110.582085 205.079468,108.361328 200.425659,107.567291 
	C200.006989,106.555962 200.011887,105.865311 200.016785,105.174667 
	C204.844910,103.893356 206.335953,104.854225 207.697845,110.869781 
	C207.648285,112.647179 207.821014,113.822609 207.993744,114.998039 
z"/>
<path fill="#DCDCDC" opacity="1.000000" stroke="none" 
	d="
M230.283783,170.792542 
	C229.492249,170.362427 229.022034,169.817215 228.305115,169.149323 
	C230.566940,166.707825 233.075455,164.389023 235.583969,162.070221 
	C236.103119,162.525436 236.622269,162.980652 237.141418,163.435867 
	C234.962646,165.849716 232.783859,168.263565 230.283783,170.792542 
z"/>
<path fill="#E3E3E3" opacity="1.000000" stroke="none" 
	d="
M200.818283,130.016174 
	C199.857452,129.860992 198.870407,129.264755 198.895294,129.218979 
	C200.416245,126.423004 202.020126,123.672142 203.616302,120.917084 
	C204.270859,121.286453 204.925430,121.655823 205.580002,122.025192 
	C204.141434,124.627464 202.702866,127.229729 200.818283,130.016174 
z"/>
<path fill="#D1D1D1" opacity="1.000000" stroke="none" 
	d="
M196.848969,134.492157 
	C196.233902,134.322281 195.935867,133.891235 195.318207,133.229553 
	C196.233765,131.631256 197.468933,130.263565 198.704117,128.895889 
	C199.231735,129.302490 199.759338,129.709106 200.286957,130.115707 
	C199.246643,131.487457 198.206329,132.859207 196.848969,134.492157 
z"/>
<path fill="#DFDFDF" opacity="1.000000" stroke="none" 
	d="
M92.565102,188.922897 
	C93.167427,189.161041 93.394104,189.464554 93.869415,189.911026 
	C92.893616,191.171249 91.669189,192.288528 90.444756,193.405792 
	C90.179901,193.312103 89.915039,193.218414 89.650185,193.124725 
	C90.496613,191.745895 91.343040,190.367081 92.565102,188.922897 
z"/>
<path fill="#D1D1D1" opacity="1.000000" stroke="none" 
	d="
M208.328796,114.886581 
	C207.821014,113.822609 207.648285,112.647179 207.711243,111.244781 
	C208.185883,112.270256 208.424866,113.522682 208.328796,114.886581 
z"/>
<path fill="#D1D1D1" opacity="1.000000" stroke="none" 
	d="
M199.749710,105.103302 
	C200.011887,105.865311 200.006989,106.555962 199.993942,107.591888 
	C199.512115,108.231636 199.038437,108.526108 198.269714,108.777664 
	C197.962997,107.888840 197.951324,107.042946 197.916916,105.772552 
	C198.423660,105.242683 198.953140,105.137306 199.749710,105.103302 
z"/>
<path fill="#DCDCDC" opacity="1.000000" stroke="none" 
	d="
M210.623810,167.126419 
	C211.398560,168.461639 212.173309,169.796875 212.957947,171.606476 
	C212.507660,171.690384 212.047516,171.299896 211.283615,170.925766 
	C210.834518,170.192444 210.689163,169.442780 210.447327,168.020920 
	C210.350830,167.348724 210.623810,167.126419 210.623810,167.126419 
z"/>
<path fill="#D1D1D1" opacity="1.000000" stroke="none" 
	d="
M194.720642,133.095352 
	C194.543030,133.635757 194.086975,134.273071 193.315216,134.955170 
	C193.480408,134.397415 193.961319,133.794846 194.720642,133.095352 
z"/>
<path fill="#CFCFCF" opacity="1.000000" stroke="none" 
	d="
M239.644745,159.389221 
	C239.623810,159.664566 239.409225,159.717697 239.194641,159.770813 
	C239.280121,159.569534 239.365616,159.368256 239.644745,159.389221 
z"/>
<path fill="#DFDFDF" opacity="1.000000" stroke="none" 
	d="
M77.276871,175.862289 
	C77.149826,175.548752 77.346626,175.336044 77.802948,175.089325 
	C77.849983,175.303711 77.696060,175.606323 77.276871,175.862289 
z"/>
<path fill="#000000" opacity="1.000000" stroke="none" 
	d="
M50.981026,188.993973 
	C43.987320,192.055466 37.087276,195.365417 29.953230,198.054611 
	C27.147821,199.112152 23.786871,199.216263 20.736244,198.988083 
	C15.382463,198.587570 12.119010,193.239975 14.921107,188.636093 
	C18.121548,183.377701 22.397804,178.736191 26.490490,174.075974 
	C28.327915,171.983765 30.855497,170.497681 33.069904,168.736542 
	C33.572063,169.077896 34.074223,169.419235 34.576382,169.760574 
	C32.964600,172.511505 31.143681,175.164886 29.801830,178.041702 
	C28.544474,180.737411 25.125387,183.282227 28.557150,187.004410 
	C33.930088,184.363708 36.095398,179.110626 37.923183,174.304626 
	C42.070591,163.399384 49.862988,156.824432 60.130112,152.152374 
	C67.774979,148.673599 75.046265,144.373856 82.336067,140.517975 
	C77.504532,139.582291 77.506035,139.585114 65.839737,145.799301 
	C60.476234,148.656219 55.105492,151.499542 48.953457,153.431534 
	C53.796768,145.235382 58.582169,137.004227 63.505123,128.856186 
	C66.454475,123.974663 69.555038,119.180199 72.734657,114.445335 
	C73.467064,113.354675 74.866852,111.846642 75.849571,111.924187 
	C85.138237,112.657112 94.520584,113.326523 102.288361,120.275772 
	C102.680382,120.381828 102.699234,120.500282 102.699234,120.500282 
	C105.901321,124.627914 105.498352,129.144608 103.793564,133.599274 
	C98.259781,148.059357 88.947144,159.776932 77.135239,169.600571 
	C71.688583,174.130371 66.144753,178.543335 60.055832,183.054077 
	C59.310867,183.399185 59.155064,183.699478 58.999252,183.999756 
	C56.878845,185.328232 54.758446,186.656708 52.050079,188.038376 
	C51.301754,188.392380 51.141392,188.693176 50.981026,188.993973 
z"/>
<path fill="#DFDFDF" opacity="1.000000" stroke="none" 
	d="
M102.621155,120.372421 
	C102.708817,120.160088 102.855698,119.957169 103.002579,119.754250 
	C103.006042,119.921425 103.009506,120.088593 102.856110,120.378021 
	C102.699234,120.500282 102.680382,120.381828 102.621155,120.372421 
z"/>
<path fill="#DFDFDF" opacity="1.000000" stroke="none" 
	d="
M59.193974,183.921494 
	C59.155064,183.699478 59.310867,183.399185 59.723236,183.178680 
	C59.835724,183.506927 59.638687,183.701843 59.193974,183.921494 
z"/>
<path fill="#DFDFDF" opacity="1.000000" stroke="none" 
	d="
M51.180954,188.914368 
	C51.141392,188.693176 51.301754,188.392380 51.722519,188.161560 
	C51.837845,188.488144 51.637165,188.689209 51.180954,188.914368 
z"/>
<path fill="#000000" opacity="1.000000" stroke="none" 
	d="
M214.379974,160.930511 
	C213.212646,162.841690 212.045303,164.752869 210.750885,166.895233 
	C210.623810,167.126419 210.350830,167.348724 210.240814,167.486084 
	C207.629898,169.748917 205.129013,171.874390 202.240601,173.778412 
	C201.770691,173.365463 201.688339,173.173965 201.606018,172.982483 
	C205.196747,168.950760 208.787476,164.919052 213.027267,160.799683 
	C213.910873,160.784836 214.145432,160.857666 214.379974,160.930511 
z"/>
<path fill="#DCDCDC" opacity="1.000000" stroke="none" 
	d="
M214.650269,160.891418 
	C214.145432,160.857666 213.910873,160.784836 213.325745,160.598801 
	C213.716766,160.100021 214.458374,159.714462 215.199982,159.328918 
	C215.106842,159.836731 215.013702,160.344528 214.650269,160.891418 
z"/>
<path fill="#DCDCDC" opacity="1.000000" stroke="none" 
	d="
M201.352280,173.037476 
	C201.688339,173.173965 201.770691,173.365463 201.897583,173.866455 
	C201.464096,174.269836 200.986099,174.363739 200.508102,174.457642 
	C200.704910,174.002594 200.901733,173.547531 201.352280,173.037476 
z"/>
</svg>